<svg width="281" height="29" viewBox="0 0 281 29" fill="none" xmlns="http://www.w3.org/2000/svg">
<path fill-rule="evenodd" clip-rule="evenodd" d="M44.2806 17.5803H49.4366V20.7358C48.3751 21.487 47.0102 21.7876 45.1905 21.7876C41.096 21.7876 38.0631 18.7824 38.0631 14.5751C38.0631 10.5181 40.9444 7.3627 44.7355 7.3627C47.3135 7.3627 49.1333 8.26425 51.1047 9.76684L55.3508 4.65803C52.6211 2.25389 49.2849 0.901558 44.7355 0.901558C36.5467 0.901558 30.6325 6.91192 30.6325 14.4249C30.6325 22.3886 36.6983 27.9482 44.8872 27.9482C49.5882 27.9482 53.531 26.1451 56.2606 23.8912V12.3212H44.129V17.5803H44.2806ZM0.151642 27.4974L11.3734 1.35233H18.3492L29.4193 27.4974H21.6854L19.714 22.8394H9.55369L7.73394 27.4974H0.151642ZM14.8613 9.9171L11.8284 17.2798H17.7426L14.8613 9.9171ZM82.647 4.35752C84.1635 5.86011 84.9217 7.81347 84.9217 10.5181C84.9217 14.4249 82.7987 17.1295 79.6141 18.4819L85.8316 27.4974H77.4911L72.1835 19.6839H68.9989V27.4974H61.7199V1.50259H74.1549C78.0977 1.50259 80.8273 2.55441 82.647 4.35752ZM68.8473 13.9741H73.6999C76.1263 13.9741 77.6427 12.772 77.4911 10.9689C77.4911 8.86529 75.9746 7.81347 73.5483 7.81347H68.8473V13.9741ZM170.147 17.2798H157.56V21.487H171.663V27.4974H150.281V1.50259H171.36V7.66322H157.56V11.57H170.147V17.2798ZM255.069 10.5181C255.069 7.81347 254.31 5.86011 252.794 4.35752C250.974 2.55441 248.244 1.50259 244.302 1.50259H231.867V27.4974H239.146V19.6839H242.33L247.638 27.4974H255.978L249.761 18.4819C252.945 17.1295 255.069 14.4249 255.069 10.5181ZM243.847 13.9741H238.994V7.81347H243.695C246.121 7.81347 247.638 8.86529 247.638 10.9689C247.79 12.772 246.273 13.9741 243.847 13.9741ZM213.972 21.6373C216.854 21.6373 218.825 19.8342 218.825 16.228H218.673V1.50259H226.104V15.9275C226.104 24.1917 221.251 27.9482 213.821 27.9482C206.39 27.9482 201.689 24.1917 201.689 16.0777V1.50259H209.12V16.0777C209.12 19.8342 211.091 21.6373 213.972 21.6373ZM271.143 11.4197C267.503 10.6684 266.594 10.0674 266.594 8.86529C266.594 7.81348 267.503 7.06218 269.172 7.06218C271.446 7.06218 274.176 7.96374 276.602 9.61659L280.242 4.50778C277.36 2.25389 273.873 1.05182 269.475 1.05182C263.106 1.05182 259.315 4.50778 259.315 9.31607C259.315 14.7254 263.561 16.3782 269.172 17.5803C272.811 18.3316 273.569 18.9326 273.569 20.1347C273.569 21.3368 272.508 21.9378 270.536 21.9378C267.503 21.9378 264.622 20.886 262.044 18.7824L257.95 23.5907C261.134 26.4456 265.532 27.9482 270.233 27.9482C276.602 27.9482 280.848 24.7928 280.848 19.5337C280.848 14.5751 277.057 12.6218 271.143 11.4197ZM183.037 8.86529C183.037 10.0674 183.947 10.6684 187.586 11.4197C193.652 12.6218 197.443 14.5751 197.291 19.5337C197.291 24.7928 193.045 27.9482 186.676 27.9482C181.975 27.9482 177.577 26.4456 174.393 23.5907L178.487 18.7824C181.065 20.886 183.947 21.9378 186.98 21.9378C188.951 21.9378 190.012 21.3368 190.012 20.1347C190.012 18.9326 189.254 18.3316 185.615 17.5803C180.004 16.3782 175.758 14.7254 175.758 9.31607C175.758 4.50778 179.549 1.05182 185.918 1.05182C190.316 1.05182 193.804 2.25389 196.685 4.50778L193.045 9.61659C190.619 7.96374 187.889 7.06218 185.615 7.06218C183.947 7.06218 183.037 7.81348 183.037 8.86529ZM145.428 10.5181C145.428 7.81347 144.67 5.86011 143.154 4.35752C141.334 2.55441 138.604 1.50259 134.662 1.50259H122.227V27.4974H129.506V19.6839H132.69L137.998 27.4974H146.338L140.121 18.4819C143.305 17.1295 145.428 14.4249 145.428 10.5181ZM134.207 13.9741H129.354V7.81347H134.055C136.481 7.81347 137.998 8.86529 137.998 10.9689C138.149 12.772 136.633 13.9741 134.207 13.9741ZM88.8645 12.4715C92.504 11.2694 97.8116 12.3212 100.996 13.9741C97.2051 16.6788 94.6271 20.285 92.8073 24.342C90.2294 21.9378 88.7129 18.4819 88.7129 14.7254C88.7129 13.9741 88.7129 13.2228 88.8645 12.4715ZM103.574 12.4715C107.062 10.8187 111.308 10.2176 116.616 11.2694C115.099 5.40933 109.792 1.05182 102.816 1.05182C96.5985 1.05182 91.5942 4.50778 89.6228 9.61659C94.1721 8.86529 100.086 10.3679 103.574 12.4715ZM102.816 28.399C99.7831 28.399 97.0534 27.4974 94.7787 26.1451C98.8732 16.6788 106.152 11.4197 117.071 14.2746V14.8757C117.071 22.3886 111.005 28.399 102.816 28.399Z" fill="#1AB169"/>
</svg>
